<mxfile host="app.diagrams.net" modified="2023-02-21T14:12:04.405Z" agent="5.0 (Windows NT 10.0; Win64; x64) AppleWebKit/537.36 (KHTML, like Gecko) Chrome/110.0.0.0 Safari/537.36" etag="t42BlXvFQO5p_fXitjQd" version="20.8.20" type="github">
  <diagram name="第 1 页" id="NAh831PUw2CAuJ2HtpD5">
    <mxGraphModel dx="1195" dy="663" grid="1" gridSize="10" guides="1" tooltips="1" connect="1" arrows="1" fold="1" page="1" pageScale="1" pageWidth="827" pageHeight="1169" math="0" shadow="0">
      <root>
        <mxCell id="0" />
        <mxCell id="1" parent="0" />
        <mxCell id="cLGF_l5P_jqh_ZVhpLIh-5" value="" style="rounded=1;whiteSpace=wrap;html=1;fillColor=#fff2cc;strokeColor=#d6b656;" vertex="1" parent="1">
          <mxGeometry x="80" y="250" width="210" height="200" as="geometry" />
        </mxCell>
        <mxCell id="cLGF_l5P_jqh_ZVhpLIh-1" value="eth0" style="rounded=0;whiteSpace=wrap;html=1;" vertex="1" parent="1">
          <mxGeometry x="140" y="250" width="90" height="30" as="geometry" />
        </mxCell>
        <mxCell id="cLGF_l5P_jqh_ZVhpLIh-2" value="Tunnel-1" style="rounded=0;whiteSpace=wrap;html=1;" vertex="1" parent="1">
          <mxGeometry x="140" y="360" width="90" height="30" as="geometry" />
        </mxCell>
        <mxCell id="cLGF_l5P_jqh_ZVhpLIh-3" value="192.168.0.106/24" style="text;html=1;strokeColor=none;fillColor=none;align=center;verticalAlign=middle;whiteSpace=wrap;rounded=0;" vertex="1" parent="1">
          <mxGeometry x="190" y="280" width="90" height="30" as="geometry" />
        </mxCell>
        <mxCell id="cLGF_l5P_jqh_ZVhpLIh-4" value="10.10.10.1/24" style="text;html=1;strokeColor=none;fillColor=none;align=center;verticalAlign=middle;whiteSpace=wrap;rounded=0;" vertex="1" parent="1">
          <mxGeometry x="180" y="390" width="90" height="30" as="geometry" />
        </mxCell>
        <mxCell id="cLGF_l5P_jqh_ZVhpLIh-6" value="" style="rounded=1;whiteSpace=wrap;html=1;fillColor=#fff2cc;strokeColor=#d6b656;" vertex="1" parent="1">
          <mxGeometry x="440" y="250" width="210" height="200" as="geometry" />
        </mxCell>
        <mxCell id="cLGF_l5P_jqh_ZVhpLIh-7" value="eth0" style="rounded=0;whiteSpace=wrap;html=1;" vertex="1" parent="1">
          <mxGeometry x="500" y="250" width="90" height="30" as="geometry" />
        </mxCell>
        <mxCell id="cLGF_l5P_jqh_ZVhpLIh-8" value="Tunnel-2" style="rounded=0;whiteSpace=wrap;html=1;" vertex="1" parent="1">
          <mxGeometry x="500" y="360" width="90" height="30" as="geometry" />
        </mxCell>
        <mxCell id="cLGF_l5P_jqh_ZVhpLIh-9" value="192.168.0.107/24" style="text;html=1;strokeColor=none;fillColor=none;align=center;verticalAlign=middle;whiteSpace=wrap;rounded=0;" vertex="1" parent="1">
          <mxGeometry x="550" y="280" width="90" height="30" as="geometry" />
        </mxCell>
        <mxCell id="cLGF_l5P_jqh_ZVhpLIh-10" value="10.10.20.1/24" style="text;html=1;strokeColor=none;fillColor=none;align=center;verticalAlign=middle;whiteSpace=wrap;rounded=0;" vertex="1" parent="1">
          <mxGeometry x="540" y="390" width="90" height="30" as="geometry" />
        </mxCell>
        <mxCell id="cLGF_l5P_jqh_ZVhpLIh-17" value="" style="group" vertex="1" connectable="0" parent="1">
          <mxGeometry x="260" y="360" width="210" height="20" as="geometry" />
        </mxCell>
        <mxCell id="cLGF_l5P_jqh_ZVhpLIh-15" value="" style="ellipse;whiteSpace=wrap;html=1;" vertex="1" parent="cLGF_l5P_jqh_ZVhpLIh-17">
          <mxGeometry x="200" width="10" height="20" as="geometry" />
        </mxCell>
        <mxCell id="cLGF_l5P_jqh_ZVhpLIh-16" value="" style="ellipse;whiteSpace=wrap;html=1;" vertex="1" parent="cLGF_l5P_jqh_ZVhpLIh-17">
          <mxGeometry width="10" height="20" as="geometry" />
        </mxCell>
        <mxCell id="cLGF_l5P_jqh_ZVhpLIh-12" value="" style="endArrow=none;html=1;rounded=0;entryX=0.5;entryY=0;entryDx=0;entryDy=0;exitX=0.5;exitY=0;exitDx=0;exitDy=0;" edge="1" parent="cLGF_l5P_jqh_ZVhpLIh-17" source="cLGF_l5P_jqh_ZVhpLIh-16" target="cLGF_l5P_jqh_ZVhpLIh-15">
          <mxGeometry width="50" height="50" relative="1" as="geometry">
            <mxPoint as="sourcePoint" />
            <mxPoint x="200" as="targetPoint" />
          </mxGeometry>
        </mxCell>
        <mxCell id="cLGF_l5P_jqh_ZVhpLIh-13" value="" style="endArrow=none;html=1;rounded=0;entryX=0.5;entryY=1;entryDx=0;entryDy=0;exitX=0.5;exitY=1;exitDx=0;exitDy=0;" edge="1" parent="cLGF_l5P_jqh_ZVhpLIh-17" source="cLGF_l5P_jqh_ZVhpLIh-16" target="cLGF_l5P_jqh_ZVhpLIh-15">
          <mxGeometry width="50" height="50" relative="1" as="geometry">
            <mxPoint y="20" as="sourcePoint" />
            <mxPoint x="200" y="20" as="targetPoint" />
          </mxGeometry>
        </mxCell>
        <mxCell id="cLGF_l5P_jqh_ZVhpLIh-19" value="" style="curved=1;endArrow=classic;html=1;rounded=0;entryX=0.5;entryY=0;entryDx=0;entryDy=0;exitX=0.5;exitY=0;exitDx=0;exitDy=0;fillColor=#d5e8d4;strokeColor=#82b366;startArrow=classic;startFill=1;" edge="1" parent="1" source="cLGF_l5P_jqh_ZVhpLIh-2" target="cLGF_l5P_jqh_ZVhpLIh-8">
          <mxGeometry width="50" height="50" relative="1" as="geometry">
            <mxPoint x="210" y="190" as="sourcePoint" />
            <mxPoint x="260" y="140" as="targetPoint" />
            <Array as="points">
              <mxPoint x="200" y="160" />
              <mxPoint x="520" y="160" />
            </Array>
          </mxGeometry>
        </mxCell>
        <mxCell id="cLGF_l5P_jqh_ZVhpLIh-20" value="" style="ellipse;shape=cloud;whiteSpace=wrap;html=1;" vertex="1" parent="1">
          <mxGeometry x="305" y="120" width="120" height="80" as="geometry" />
        </mxCell>
      </root>
    </mxGraphModel>
  </diagram>
</mxfile>
